<svg width="512" height="433" viewBox="0 0 512 433" fill="none" xmlns="http://www.w3.org/2000/svg">
<path d="M152.1 7.2C162 16.1 162.8 31.2 153.9 41.1L81.9 121.1C77.5 126 71.3 128.9 64.7 129C58.1 129.1 51.8 126.6 47.1 122L7.00001 82C-2.29999 72.6 -2.29999 57.4 7.00001 48C16.3 38.6 31.6 38.6 40.9 48L63 70.1L118.1 8.9C127 -1 142.1 -1.8 152 7.1L152.1 7.2ZM152.1 167.2C162 176.1 162.8 191.2 153.9 201.1L81.9 281.1C77.5 286 71.3 288.9 64.7 289C58.1 289.1 51.8 286.6 47.1 282L7.00001 242C-2.39999 232.6 -2.39999 217.4 7.00001 208.1C16.4 198.8 31.6 198.7 40.9 208.1L63 230.2L118.1 169C127 159.1 142.1 158.3 152 167.2H152.1ZM224 65C224 47.3 238.3 33 256 33H480C497.7 33 512 47.3 512 65C512 82.7 497.7 97 480 97H256C238.3 97 224 82.7 224 65ZM224 225C224 207.3 238.3 193 256 193H480C497.7 193 512 207.3 512 225C512 242.7 497.7 257 480 257H256C238.3 257 224 242.7 224 225ZM160 385C160 367.3 174.3 353 192 353H480C497.7 353 512 367.3 512 385C512 402.7 497.7 417 480 417H192C174.3 417 160 402.7 160 385ZM48 337C60.7304 337 72.9394 342.057 81.9411 351.059C90.9429 360.061 96 372.27 96 385C96 397.73 90.9429 409.939 81.9411 418.941C72.9394 427.943 60.7304 433 48 433C35.2696 433 23.0606 427.943 14.0589 418.941C5.05714 409.939 1.19209e-05 397.73 1.19209e-05 385C1.19209e-05 372.27 5.05714 360.061 14.0589 351.059C23.0606 342.057 35.2696 337 48 337Z" fill="#A4F22D"/>
</svg>
